<svg xmlns="http://www.w3.org/2000/svg" width="24" height="24" fill="none"><path stroke="#020F59" stroke-linecap="round" stroke-linejoin="round" stroke-width="2" d="M9 22a1 1 0 1 0 0-2 1 1 0 0 0 0 2ZM20 22a1 1 0 1 0 0-2 1 1 0 0 0 0 2Z"/><path stroke="#020F59" stroke-linecap="round" stroke-linejoin="round" d="M1 1h4l2.68 13.39a2 2 0 0 0 2 1.61h9.72a2 2 0 0 0 2-1.61l.8-4.195L23 6H6M5 1l1 5m0 0 1.68 8.39.708 1.168M6 6H23l-.8 4.195M6 6h0m3.68 10h9.72a2 2 0 0 0 1.293-.442"/><path fill="#020F59" d="M8.388 15.558a2 2 0 0 1-.708-1.168L6 6h17l-.8 4.195-.8 4.195a2 2 0 0 1-2 1.61H9.68a2 2 0 0 1-1.292-.442Z"/><path stroke="#020F59" stroke-linecap="round" stroke-linejoin="round" d="M7.68 14.39a2 2 0 0 0 .708 1.168M7.68 14.39 6 6h17l-.8 4.195-.8 4.195a2 2 0 0 1-2 1.61H9.68a2 2 0 0 1-1.292-.442M7.68 14.39l.708 1.168"/></svg>