<svg xmlns="http://www.w3.org/2000/svg" width="56" height="56" fill="none"><path fill="#020F59" d="M55.783 15.27 46.45 4.07a.935.935 0 0 0-.717-.335H10.267a.932.932 0 0 0-.717.335L.217 15.27a.93.93 0 0 0 .717 1.53h54.132a.935.935 0 0 0 .717-1.53Zm-52.856-.336L10.704 5.6h34.592l7.777 9.334H2.927Z"/><path fill="#020F59" d="M28.863 4.31a.933.933 0 0 0-.862-.576H10.268a.933.933 0 0 0-.807 1.403l6.534 11.2a.934.934 0 0 0 1.466.19l11.2-11.2a.933.933 0 0 0 .202-1.018ZM16.996 14.35l-5.104-8.75h13.855l-8.751 8.75Z"/><path fill="#020F59" d="M55.903 15.453a.933.933 0 0 0-.837-.52H.934a.934.934 0 0 0-.741 1.5l27.066 35.466a.933.933 0 0 0 1.482 0l27.066-35.466a.934.934 0 0 0 .096-.98ZM28 49.795 2.82 16.8h50.36l-25.18 32.995Z"/><path fill="#020F59" d="m28.89 51.051-11.2-35.466a.934.934 0 0 0-.89-.652H.934a.934.934 0 0 0-.741 1.5l27.066 35.466a.931.931 0 0 0 1.171.261.933.933 0 0 0 .46-1.109ZM2.82 16.801h13.296l9.386 29.72L2.82 16.801ZM46.542 4.202a.932.932 0 0 0-.809-.468H28a.934.934 0 0 0-.66 1.593l11.2 11.2a.93.93 0 0 0 .78.265.933.933 0 0 0 .686-.455l6.533-11.2a.935.935 0 0 0 .003-.935Zm-7.538 10.149-8.751-8.75h13.855l-5.104 8.75Z"/><path fill="#020F59" d="M55.904 15.454a.933.933 0 0 0-.837-.52H39.201a.933.933 0 0 0-.89.653l-11.2 35.466a.934.934 0 0 0 1.631.848l27.066-35.467a.934.934 0 0 0 .096-.98ZM30.499 46.521l9.385-29.72H53.18L30.5 46.52Z"/></svg>