<svg xmlns="http://www.w3.org/2000/svg" width="25" height="20" fill="none"><g stroke="#020F59" stroke-linecap="round" stroke-linejoin="round" opacity=".5"><path d="M20.92 14.1v2.5a1.667 1.667 0 0 1-1.818 1.667 16.492 16.492 0 0 1-7.191-2.559 16.251 16.251 0 0 1-5-5 16.492 16.492 0 0 1-2.559-7.225 1.667 1.667 0 0 1 1.659-1.816h2.5A1.667 1.667 0 0 1 10.178 3.1c.105.8.3 1.586.583 2.342a1.667 1.667 0 0 1-.375 1.758L9.327 8.258a13.334 13.334 0 0 0 5 5l1.059-1.058a1.667 1.667 0 0 1 1.758-.375c.756.282 1.542.478 2.342.583a1.667 1.667 0 0 1 1.433 1.692Z"/><path fill="#020F59" d="M20.92 14.1v2.5a1.667 1.667 0 0 1-1.818 1.667 16.492 16.492 0 0 1-7.191-2.559 16.251 16.251 0 0 1-5-5 16.492 16.492 0 0 1-2.559-7.225 1.667 1.667 0 0 1 1.659-1.816h2.5A1.667 1.667 0 0 1 10.178 3.1c.105.8.3 1.586.583 2.342a1.667 1.667 0 0 1-.375 1.758L9.327 8.258a13.334 13.334 0 0 0 5 5l1.059-1.058a1.667 1.667 0 0 1 1.758-.375c.756.282 1.542.478 2.342.583a1.667 1.667 0 0 1 1.433 1.692Z"/></g></svg>