<svg xmlns="http://www.w3.org/2000/svg" width="20" height="21" fill="none"><path stroke="#000" stroke-linecap="round" stroke-linejoin="round" stroke-width="1.5" d="m19.05 9.907-8.534 8.472A5.596 5.596 0 0 1 6.575 20a5.595 5.595 0 0 1-3.942-1.62A5.514 5.514 0 0 1 1 14.465c0-1.468.587-2.876 1.633-3.913l8.533-8.472A3.73 3.73 0 0 1 13.794 1c.986 0 1.931.389 2.628 1.08a3.676 3.676 0 0 1 1.089 2.61c0 .978-.392 1.916-1.089 2.608L7.88 15.77a1.865 1.865 0 0 1-2.628 0 1.838 1.838 0 0 1 0-2.609l7.884-7.817"/></svg>