<svg xmlns="http://www.w3.org/2000/svg" width="32" height="31" fill="none"><g filter="url(#a)"><path stroke="#fff" stroke-linecap="round" stroke-linejoin="round" stroke-width="2" d="M13 22a1 1 0 1 0 0-2 1 1 0 0 0 0 2ZM24 22a1 1 0 1 0 0-2 1 1 0 0 0 0 2Z"/><path stroke="#fff" stroke-linecap="round" stroke-linejoin="round" d="M5 1h4l2.68 13.39a2 2 0 0 0 2 1.61h9.72a2 2 0 0 0 2-1.61l.8-4.195L27 6H10M9 1l1 5m0 0 1.68 8.39.707 1.168M10.002 6H27l-.8 4.195M10 6h0m3.68 10h9.72a2 2 0 0 0 1.293-.442"/><path fill="#fff" d="M12.387 15.558a2 2 0 0 1-.707-1.168L10 6h17l-.8 4.195-.8 4.195a2 2 0 0 1-2 1.61h-9.72a2 2 0 0 1-1.293-.442Z"/><path stroke="#fff" stroke-linecap="round" stroke-linejoin="round" d="M11.68 14.39a2 2 0 0 0 .707 1.168m-.707-1.168L10 6h17l-.8 4.195-.8 4.195a2 2 0 0 1-2 1.61h-9.72a2 2 0 0 1-1.293-.442m-.707-1.168.707 1.168"/></g><defs><filter id="a" width="32" height="32" x="0" y="0" color-interpolation-filters="sRGB" filterUnits="userSpaceOnUse"><feFlood flood-opacity="0" result="BackgroundImageFix"/><feColorMatrix in="SourceAlpha" result="hardAlpha" values="0 0 0 0 0 0 0 0 0 0 0 0 0 0 0 0 0 0 127 0"/><feOffset dy="4"/><feGaussianBlur stdDeviation="2"/><feComposite in2="hardAlpha" operator="out"/><feColorMatrix values="0 0 0 0 0 0 0 0 0 0 0 0 0 0 0 0 0 0 0.25 0"/><feBlend in2="BackgroundImageFix" result="effect1_dropShadow_2883_972"/><feColorMatrix in="SourceAlpha" result="hardAlpha" values="0 0 0 0 0 0 0 0 0 0 0 0 0 0 0 0 0 0 127 0"/><feOffset dy="4"/><feGaussianBlur stdDeviation="2"/><feComposite in2="hardAlpha" operator="out"/><feColorMatrix values="0 0 0 0 0 0 0 0 0 0 0 0 0 0 0 0 0 0 0.25 0"/><feBlend in2="effect1_dropShadow_2883_972" result="effect2_dropShadow_2883_972"/><feBlend in="SourceGraphic" in2="effect2_dropShadow_2883_972" result="shape"/></filter></defs></svg>