<svg xmlns="http://www.w3.org/2000/svg" width="36" height="35" fill="none"><g fill="#020F59" clip-path="url(#a)" opacity=".8"><path d="M20.118 17.5a2.094 2.094 0 1 1-4.187 0 2.094 2.094 0 0 1 4.187 0Z"/><path d="M18.024 6.563c-6.04 0-10.937 4.897-10.937 10.937 0 6.04 4.898 10.938 10.937 10.938 6.04 0 10.938-4.898 10.938-10.938 0-6.04-4.898-10.938-10.938-10.938Zm6.243 13.526c-.03.669-.137 1.125-.292 1.525a3.211 3.211 0 0 1-1.837 1.837c-.399.155-.856.261-1.524.292-.67.03-.884.038-2.59.038-1.705 0-1.919-.008-2.589-.038-.668-.03-1.125-.137-1.524-.292a3.075 3.075 0 0 1-1.113-.725 3.079 3.079 0 0 1-.724-1.112c-.155-.4-.262-.856-.292-1.524-.03-.67-.038-.884-.038-2.59s.007-1.92.038-2.59c.03-.668.136-1.124.291-1.524.158-.419.406-.799.725-1.112.314-.32.693-.567 1.113-.725.399-.155.856-.261 1.524-.292.67-.03.884-.037 2.59-.037 1.705 0 1.919.007 2.589.037.668.03 1.125.137 1.524.292.42.158.8.405 1.113.725.32.314.567.693.724 1.112.155.4.262.856.292 1.525.03.67.038.883.038 2.589s-.007 1.92-.038 2.59Z"/><circle cx="21.032" cy="13.945" r=".82"/></g><defs><clipPath id="a"><path fill="#fff" d="M7.087 6.563h21.875v21.875H7.087z"/></clipPath></defs></svg>