<svg xmlns="http://www.w3.org/2000/svg" width="37" height="35" fill="none"><g opacity=".8"><circle cx="18.338" cy="17.5" r="10.938" fill="#020F59"/><path fill="#fff" d="M24.975 21.027a1.071 1.071 0 0 0-.049-.1c-.249-.479-.725-1.067-1.429-1.764l-.015-.016-.007-.008-.008-.008h-.007a8.962 8.962 0 0 1-.606-.655c-.155-.213-.19-.429-.105-.647.06-.165.285-.514.674-1.046.204-.282.366-.508.486-.679.863-1.224 1.237-2.006 1.122-2.347l-.044-.08c-.03-.048-.108-.092-.232-.131a1.104 1.104 0 0 0-.48-.02l-2.154.015c-.035-.013-.085-.011-.15.005-.065.015-.097.024-.097.024l-.038.02-.03.024a.342.342 0 0 0-.082.083.561.561 0 0 0-.074.14 13.454 13.454 0 0 1-.801 1.797c-.185.33-.354.616-.509.858-.154.242-.284.42-.389.535-.105.114-.2.206-.284.275-.085.07-.15.099-.195.088a4.815 4.815 0 0 1-.127-.032.52.52 0 0 1-.168-.195.921.921 0 0 1-.086-.312 3.644 3.644 0 0 1-.023-.707c.005-.165.008-.276.008-.335 0-.202.003-.422.01-.659l.02-.563c.005-.138.007-.284.007-.439 0-.154-.009-.275-.026-.363a1.294 1.294 0 0 0-.078-.256.424.424 0 0 0-.154-.191.836.836 0 0 0-.25-.108 4.675 4.675 0 0 0-1.01-.104c-.928-.01-1.525.053-1.789.192a1.02 1.02 0 0 0-.284.24c-.09.117-.103.18-.038.19.3.049.511.163.636.344l.045.096c.035.07.07.192.105.367.035.176.057.37.067.583a6.63 6.63 0 0 1 0 .998 12.6 12.6 0 0 1-.07.647 1.36 1.36 0 0 1-.192.551.132.132 0 0 1-.037.04.528.528 0 0 1-.202.04c-.07 0-.155-.037-.255-.112a1.85 1.85 0 0 1-.31-.307 4.124 4.124 0 0 1-.363-.547 9.785 9.785 0 0 1-.419-.83l-.12-.232a20.56 20.56 0 0 1-.306-.651 12.97 12.97 0 0 1-.345-.827.524.524 0 0 0-.179-.255l-.037-.024a.752.752 0 0 0-.292-.12l-2.05.016c-.21 0-.352.05-.427.152l-.03.048a.273.273 0 0 0-.022.128c0 .058.015.13.045.215.299.75.624 1.475.976 2.172.352.697.657 1.26.916 1.685.26.426.524.828.794 1.205.269.378.447.62.534.727.088.107.156.186.206.24l.188.191c.12.128.295.281.527.46.232.178.489.353.77.526.282.173.61.314.985.424.374.109.738.153 1.092.131h.86c.175-.016.307-.074.397-.175l.03-.04a.547.547 0 0 0 .056-.148.862.862 0 0 0 .026-.22 2.798 2.798 0 0 1 .049-.618c.037-.184.08-.322.127-.415a1.02 1.02 0 0 1 .288-.352.48.48 0 0 1 .06-.028c.12-.042.26 0 .423.124.162.125.314.28.456.463.142.184.313.39.513.62.2.228.374.398.523.51l.15.096c.1.064.23.122.39.176.159.053.298.066.418.04l1.915-.032c.19 0 .337-.034.442-.1.105-.067.167-.14.187-.22.02-.08.021-.17.004-.271a1.053 1.053 0 0 0-.053-.212Z"/></g></svg>