<svg xmlns="http://www.w3.org/2000/svg" width="37" height="35" fill="none"><path fill="#020F59" d="M18.286 7h-.005C12.49 7 7.783 11.71 7.783 17.5c0 2.297.74 4.426 2 6.155l-1.31 3.9 4.036-1.29C14.17 27.365 16.15 28 18.287 28c5.79 0 10.497-4.71 10.497-10.5S24.075 7 18.286 7Zm6.11 14.828c-.254.715-1.26 1.308-2.061 1.481-.549.117-1.265.21-3.678-.79-3.085-1.278-5.072-4.414-5.227-4.617-.149-.204-1.247-1.66-1.247-3.167s.765-2.24 1.073-2.556c.254-.258.672-.376 1.074-.376.13 0 .247.006.352.011.308.014.463.032.666.519.254.61.87 2.117.944 2.272.075.155.15.365.045.568-.099.21-.185.303-.34.482-.155.178-.302.315-.457.507-.142.166-.302.345-.123.653.178.302.795 1.309 1.703 2.117 1.172 1.044 2.123 1.377 2.463 1.519.253.105.555.08.74-.117.235-.253.525-.673.82-1.087.21-.296.475-.333.753-.228.284.098 1.784.84 2.093.993.308.155.511.229.586.359.074.13.074.74-.18 1.457Z" opacity=".8"/></svg>